<svg width="51" height="46" fill="none" xmlns="http://www.w3.org/2000/svg"><path d="M25.184 4.217c6.715 0 7.555 0 10.283.192C42.392 4.6 45.54 7.667 45.75 13.8c.21 2.492.21 3.067.21 9.2 0 6.134 0 6.9-.21 9.2-.21 6.134-3.567 9.2-10.283 9.392-2.728.192-3.358.192-10.283.192-6.716 0-7.555 0-10.074-.192C8.185 41.4 5.037 38.334 4.827 32.2c-.21-2.491-.21-3.066-.21-9.2 0-6.133 0-6.9.21-9.2.21-6.133 3.568-9.2 10.283-9.391 2.519-.192 3.358-.192 10.074-.192zm0-4.217C18.258 0 17.419 0 14.9.192 5.666.575.63 5.175.21 13.609 0 15.909 0 16.675 0 23s0 7.092.21 9.392c.42 8.433 5.456 13.033 14.69 13.417C17.42 46 18.258 46 25.184 46c6.925 0 7.765 0 10.283-.191 9.234-.384 14.27-4.984 14.69-13.417.21-2.3.21-3.067.21-9.392 0-6.325 0-7.091-.21-9.391C49.737 5.175 44.701.575 35.467.192 32.949 0 32.109 0 25.184 0zm0 11.117c-7.136 0-13.012 5.367-13.012 11.883 0 6.517 5.876 11.884 13.012 11.884 7.135 0 13.011-5.367 13.011-11.884 0-6.516-5.876-11.883-13.011-11.883zm0 19.55c-4.617 0-8.395-3.45-8.395-7.667 0-4.216 3.778-7.666 8.395-7.666 4.617 0 8.394 3.45 8.394 7.666 0 4.217-3.777 7.667-8.394 7.667zM38.614 8.05c-1.678 0-2.937 1.15-2.937 2.684 0 1.533 1.259 2.683 2.938 2.683 1.679 0 2.938-1.15 2.938-2.683 0-1.534-1.26-2.684-2.938-2.684z" fill="#fff"/></svg>