<svg width="33" height="53" fill="none" xmlns="http://www.w3.org/2000/svg"><mask id="a" fill="#fff"><path fill-rule="evenodd" clip-rule="evenodd" d="M16.5 52.606S33 25.613 33 16.5C33 7.387 25.613 0 16.5 0S0 7.387 0 16.5s16.5 36.106 16.5 36.106zm.097-26.4a8.638 8.638 0 100-17.277 8.638 8.638 0 000 17.277z"/></mask><path fill-rule="evenodd" clip-rule="evenodd" d="M16.5 52.606S33 25.613 33 16.5C33 7.387 25.613 0 16.5 0S0 7.387 0 16.5s16.5 36.106 16.5 36.106zm.097-26.4a8.638 8.638 0 100-17.277 8.638 8.638 0 000 17.277z" fill="#fff"/><path d="M16.5 52.606l-.853.521.853 1.396.853-1.396-.853-.521zM32 16.5c0 2.063-.957 5.295-2.505 9.11-1.53 3.77-3.576 7.966-5.631 11.897a279.256 279.256 0 01-5.651 10.238 275.07 275.07 0 01-2.384 4.038l-.136.226-.035.057c-.004.006-.007.01-.008.014l-.003.003v.001l.853.522.854.521v-.001l.003-.004.009-.015.036-.06a110.942 110.942 0 00.666-1.106c.453-.76 1.1-1.853 1.876-3.194a281.128 281.128 0 005.692-10.313c2.07-3.957 4.149-8.218 5.713-12.072C32.894 22.552 34 18.994 34 16.5h-2zM16.5 1C25.06 1 32 7.94 32 16.5h2C34 6.835 26.165-1 16.5-1v2zM1 16.5C1 7.94 7.94 1 16.5 1v-2C6.835-1-1 6.835-1 16.5h2zm15.5 36.106l.853-.522-.003-.004-.008-.014-.035-.057-.136-.226a275.07 275.07 0 01-2.383-4.038 279.216 279.216 0 01-5.652-10.238c-2.055-3.93-4.102-8.127-5.631-11.897C1.957 21.795 1 18.563 1 16.5h-2c0 2.494 1.106 6.052 2.652 9.862 1.564 3.854 3.642 8.115 5.712 12.072a281.229 281.229 0 005.692 10.313 276.369 276.369 0 002.542 4.3l.036.06.01.015a.087.087 0 00.002.004v.001l.854-.521zm7.735-35.038a7.638 7.638 0 01-7.638 7.638v2a9.638 9.638 0 009.638-9.638h-2zm-7.638-7.639a7.638 7.638 0 017.638 7.639h2a9.638 9.638 0 00-9.638-9.639v2zM8.96 17.568a7.638 7.638 0 017.638-7.639v-2a9.638 9.638 0 00-9.638 9.639h2zm7.638 7.638a7.638 7.638 0 01-7.638-7.638h-2a9.638 9.638 0 009.638 9.638v-2z" fill="#fff" mask="url(#a)"/></svg>