<svg width="172" height="126" fill="none" xmlns="http://www.w3.org/2000/svg"><path fill-rule="evenodd" clip-rule="evenodd" d="M75.666 93.498c23.071 0 41.773-20.182 41.773-45.077S98.737 3.344 75.667 3.344c-23.07 0-41.773 20.182-41.773 45.077s18.702 45.077 41.773 45.077z" fill="#242525"/><path d="M117.343 48.318c0 11.465-4.048 22.499-11.322 30.856l-30.45-30.856h41.772zm-83.543 0c0-11.465 4.048-22.5 11.32-30.857l30.451 30.857H33.799z" fill="#2F363D"/><path fill-rule="evenodd" clip-rule="evenodd" d="M75.666 68.474c10.264 0 18.584-8.978 18.584-20.053 0-11.076-8.32-20.054-18.584-20.054-10.263 0-18.583 8.978-18.583 20.054 0 11.075 8.32 20.053 18.583 20.053z" fill="#FFD600"/><path d="M15.228 92.383c-2.4 0-4.452-.42-6.156-1.26-1.68-.84-3.036-1.932-4.068-3.276a13.75 13.75 0 01-2.268-4.356c-.48-1.584-.72-3.108-.72-4.572v-.792c0-1.584.24-3.168.72-4.752a13.399 13.399 0 012.304-4.32c1.032-1.296 2.376-2.34 4.032-3.132 1.656-.792 3.636-1.188 5.94-1.188 3.504 0 6.264.9 8.28 2.7 2.04 1.776 3.228 4.152 3.564 7.128h-3.6c-.312-2.232-1.236-3.888-2.772-4.968-1.512-1.08-3.336-1.62-5.472-1.62-2.064 0-3.804.48-5.22 1.44-1.392.936-2.436 2.208-3.132 3.816-.696 1.584-1.044 3.36-1.044 5.328 0 1.872.348 3.612 1.044 5.22.72 1.608 1.788 2.904 3.204 3.888 1.44.984 3.228 1.476 5.364 1.476 2.256 0 4.152-.564 5.688-1.692 1.536-1.128 2.472-2.76 2.808-4.896h3.6c-.24 1.8-.852 3.444-1.836 4.932-.96 1.488-2.304 2.676-4.032 3.564-1.704.888-3.78 1.332-6.228 1.332zm25.557 0c-1.68 0-3.156-.288-4.428-.864-1.272-.576-2.352-1.332-3.24-2.268a10.352 10.352 0 01-1.98-3.204 10.365 10.365 0 01-.648-3.6v-.648a9.88 9.88 0 01.684-3.6 9.53 9.53 0 012.016-3.204c.888-.96 1.968-1.716 3.24-2.268 1.272-.576 2.724-.864 4.356-.864 1.632 0 3.084.288 4.356.864 1.272.552 2.352 1.308 3.24 2.268a9.53 9.53 0 012.016 3.204 9.88 9.88 0 01.684 3.6v.648a9.88 9.88 0 01-.684 3.6 9.523 9.523 0 01-1.98 3.204c-.864.936-1.932 1.692-3.204 2.268-1.272.576-2.748.864-4.428.864zm0-3.096c1.44 0 2.664-.312 3.672-.936a6.25 6.25 0 002.34-2.592c.552-1.08.828-2.292.828-3.636 0-1.368-.276-2.592-.828-3.672a6.256 6.256 0 00-2.376-2.556c-1.008-.624-2.22-.936-3.636-.936-1.392 0-2.604.312-3.636.936a6.256 6.256 0 00-2.376 2.556c-.552 1.08-.828 2.304-.828 3.672 0 1.344.264 2.556.792 3.636a6.59 6.59 0 002.34 2.592c1.032.624 2.268.936 3.708.936z" fill="#fff"/><path d="M56.257 91.735V72.51h2.736v4.428c.408-1.608 1.128-2.844 2.16-3.708 1.056-.864 2.424-1.296 4.104-1.296h.144c1.632 0 2.964.408 3.996 1.224 1.032.816 1.764 1.992 2.196 3.528.456-1.536 1.2-2.712 2.232-3.528 1.056-.816 2.4-1.224 4.032-1.224h.144c2.28 0 3.972.78 5.076 2.34 1.128 1.536 1.692 3.696 1.692 6.48v10.98h-3.456V79.999c0-1.56-.384-2.76-1.152-3.6-.768-.864-1.836-1.296-3.204-1.296-1.416 0-2.556.456-3.42 1.368-.864.888-1.296 2.136-1.296 3.744v11.52h-3.456V79.999c0-1.56-.384-2.76-1.152-3.6-.768-.864-1.836-1.296-3.204-1.296-1.416 0-2.556.456-3.42 1.368-.864.888-1.296 2.136-1.296 3.744v11.52h-3.456zm43.012.648c-1.68 0-3.132-.288-4.356-.864-1.224-.576-2.22-1.332-2.988-2.268a10.11 10.11 0 01-1.728-3.204 12.232 12.232 0 01-.54-3.6v-.648c0-1.248.18-2.46.54-3.636a9.687 9.687 0 011.728-3.168c.768-.96 1.74-1.716 2.916-2.268 1.2-.576 2.604-.864 4.212-.864 2.088 0 3.804.456 5.148 1.368 1.368.888 2.376 2.04 3.024 3.456a10.447 10.447 0 011.008 4.536v1.548H92.969c.12 1.896.684 3.468 1.692 4.716 1.008 1.248 2.544 1.872 4.608 1.872 1.512 0 2.736-.336 3.672-1.008.96-.672 1.536-1.452 1.728-2.34h3.24c-.408 1.992-1.38 3.552-2.916 4.68-1.536 1.128-3.444 1.692-5.724 1.692zm-.216-17.496c-1.728 0-3.084.492-4.068 1.476-.984.96-1.608 2.232-1.872 3.816h11.736c-.216-1.632-.804-2.916-1.764-3.852-.96-.96-2.304-1.44-4.032-1.44z" fill="#FFD600"/><path d="M8.928 117.838V94.726H.936v-3.168h19.512v3.168h-7.992v23.112H8.928zm22.295.648c-1.68 0-3.156-.288-4.428-.864-1.272-.576-2.352-1.332-3.24-2.268a10.352 10.352 0 01-1.98-3.204 10.365 10.365 0 01-.648-3.6v-.648a9.88 9.88 0 01.684-3.6 9.53 9.53 0 012.016-3.204c.888-.96 1.968-1.716 3.24-2.268 1.272-.576 2.724-.864 4.356-.864 1.632 0 3.084.288 4.356.864 1.272.552 2.352 1.308 3.24 2.268a9.53 9.53 0 012.016 3.204 9.88 9.88 0 01.684 3.6v.648a9.88 9.88 0 01-.684 3.6 9.523 9.523 0 01-1.98 3.204c-.864.936-1.932 1.692-3.204 2.268-1.272.576-2.748.864-4.428.864zm0-3.096c1.44 0 2.664-.312 3.672-.936a6.25 6.25 0 002.34-2.592c.552-1.08.828-2.292.828-3.636 0-1.368-.276-2.592-.828-3.672a6.256 6.256 0 00-2.376-2.556c-1.008-.624-2.22-.936-3.636-.936-1.392 0-2.604.312-3.636.936a6.256 6.256 0 00-2.376 2.556c-.552 1.08-.828 2.304-.828 3.672 0 1.344.264 2.556.792 3.636a6.59 6.59 0 002.34 2.592c1.032.624 2.268.936 3.708.936zm22.744 9.936c-1.8 0-3.552-.132-5.256-.396v-2.916c.864.12 1.764.216 2.7.288.96.096 1.86.144 2.7.144 2.64 0 4.488-.54 5.544-1.62 1.08-1.056 1.62-2.76 1.62-5.112v-1.728c-.72 1.344-1.692 2.352-2.916 3.024-1.2.648-2.532.972-3.996.972-1.8 0-3.384-.444-4.752-1.332a9.47 9.47 0 01-3.204-3.6c-.768-1.488-1.152-3.12-1.152-4.896v-.648c0-1.8.396-3.42 1.188-4.86a8.968 8.968 0 013.276-3.42c1.392-.84 3-1.26 4.824-1.26 1.68 0 3.144.372 4.392 1.116 1.272.744 2.244 1.824 2.916 3.24v-3.708h2.736v16.956c0 2.304-.36 4.164-1.08 5.58-.696 1.44-1.824 2.496-3.384 3.168-1.536.672-3.588 1.008-6.156 1.008zm1.044-10.512c1.152 0 2.196-.252 3.132-.756a5.614 5.614 0 002.268-2.16c.576-.96.864-2.1.864-3.42v-1.656c0-1.296-.3-2.388-.9-3.276a5.566 5.566 0 00-2.268-2.016c-.936-.456-1.956-.684-3.06-.684-1.896 0-3.432.636-4.608 1.908-1.152 1.272-1.728 2.964-1.728 5.076 0 2.136.588 3.84 1.764 5.112 1.2 1.248 2.712 1.872 4.536 1.872zm24.149 3.672c-1.68 0-3.132-.288-4.356-.864-1.224-.576-2.22-1.332-2.988-2.268a10.11 10.11 0 01-1.728-3.204 12.232 12.232 0 01-.54-3.6v-.648c0-1.248.18-2.46.54-3.636a9.687 9.687 0 011.728-3.168c.768-.96 1.74-1.716 2.916-2.268 1.2-.576 2.604-.864 4.212-.864 2.088 0 3.804.456 5.148 1.368 1.368.888 2.376 2.04 3.024 3.456a10.447 10.447 0 011.008 4.536v1.548H72.86c.12 1.896.684 3.468 1.692 4.716 1.008 1.248 2.544 1.872 4.608 1.872 1.512 0 2.736-.336 3.672-1.008.96-.672 1.536-1.452 1.728-2.34h3.24c-.408 1.992-1.38 3.552-2.916 4.68-1.536 1.128-3.444 1.692-5.724 1.692zm-.216-17.496c-1.728 0-3.084.492-4.068 1.476-.984.96-1.608 2.232-1.872 3.816H84.74c-.216-1.632-.804-2.916-1.764-3.852-.96-.96-2.304-1.44-4.032-1.44zm21.575 17.064c-1.44 0-2.688-.204-3.744-.612-1.032-.408-1.836-1.104-2.412-2.088-.552-1.008-.828-2.364-.828-4.068v-10.08h-3.312v-2.592h3.312v-5.832h3.312v5.832h6.624v2.592h-6.624v10.512c0 1.032.276 1.836.828 2.412.576.552 1.38.828 2.412.828h3.384v3.096h-2.952zm7.84-.216v-26.28h3.456v10.44c.528-1.272 1.284-2.244 2.268-2.916 1.008-.696 2.292-1.044 3.852-1.044h.144c2.304 0 4.044.768 5.22 2.304 1.176 1.512 1.764 3.684 1.764 6.516v10.98h-3.456v-11.7c0-1.56-.444-2.772-1.332-3.636-.864-.864-1.992-1.296-3.384-1.296-1.536 0-2.772.516-3.708 1.548-.912 1.008-1.368 2.34-1.368 3.996v11.088h-3.456zm31.199.648c-1.68 0-3.132-.288-4.356-.864-1.224-.576-2.22-1.332-2.988-2.268a10.11 10.11 0 01-1.728-3.204 12.232 12.232 0 01-.54-3.6v-.648c0-1.248.18-2.46.54-3.636a9.687 9.687 0 011.728-3.168c.768-.96 1.74-1.716 2.916-2.268 1.2-.576 2.604-.864 4.212-.864 2.088 0 3.804.456 5.148 1.368 1.368.888 2.376 2.04 3.024 3.456a10.447 10.447 0 011.008 4.536v1.548h-15.264c.12 1.896.684 3.468 1.692 4.716 1.008 1.248 2.544 1.872 4.608 1.872 1.512 0 2.736-.336 3.672-1.008.96-.672 1.536-1.452 1.728-2.34h3.24c-.408 1.992-1.38 3.552-2.916 4.68-1.536 1.128-3.444 1.692-5.724 1.692zm-.216-17.496c-1.728 0-3.084.492-4.068 1.476-.984.96-1.608 2.232-1.872 3.816h11.736c-.216-1.632-.804-2.916-1.764-3.852-.96-.96-2.304-1.44-4.032-1.44zm14.087 16.848V98.614h2.736v5.76c.288-2.064 1.044-3.576 2.268-4.536 1.224-.96 2.892-1.44 5.004-1.44h.648v3.096h-1.224c-1.92 0-3.396.516-4.428 1.548-1.032 1.008-1.548 2.472-1.548 4.392v10.404h-3.456z" fill="#fff"/></svg>