<svg width="51" height="54" fill="none" xmlns="http://www.w3.org/2000/svg"><path d="M44.704 5.209C43.38 4.005 38.029.156 26.145.165c0 0-14.012-.777-20.808 5.524C1.554 9.511.245 15.072.143 21.976c-.102 6.893-.216 19.819 12.26 23.259h.01l.018 5.342s-.064 2.166 1.362 2.595c1.723.522 2.734-1.13 4.37-2.912a159.25 159.25 0 003.073-3.51c8.521.667 15.065-1.002 15.807-1.25 1.718-.572 11.45-1.865 12.965-14.798 1.567-13.305-.909-21.714-5.304-25.493zm1.572 24.578c-1.282 10.797-9.17 11.517-10.622 11.992-.615.205-6.364 1.669-13.609 1.228 0 0-5.361 6.539-7.03 8.236-.264.267-.572.375-.774.322-.287-.072-.374-.412-.366-.91-.004-.723-.003-8.89-.003-8.89-.011 0-.011 0 0 0C3.31 38.899 3.87 27.893 3.957 22.137c.086-5.757 1.145-10.488 4.347-13.68 5.74-5.256 17.648-4.542 17.648-4.542C36 3.905 40.826 6.907 41.946 7.91c3.723 3.167 5.653 10.75 4.33 21.877z" fill="#fff"/><path d="M31.155 22.198a.674.674 0 01-.672-.634c-.128-2.283-1.207-3.392-3.395-3.498a.676.676 0 01.067-1.35c2.89.145 4.512 1.793 4.676 4.766a.66.66 0 01-.633.705c-.021.01-.032.01-.043.01z" fill="#fff"/><path d="M34.602 23.327h-.01a.675.675 0 01-.662-.687c.041-2.294-.627-4.15-2.037-5.672-1.4-1.521-3.326-2.34-5.865-2.507a.668.668 0 01-.62-.72.668.668 0 01.72-.619c2.868.197 5.135 1.184 6.759 2.939 1.634 1.765 2.431 3.98 2.392 6.604a.68.68 0 01-.677.662z" fill="#fff"/><path d="M38.136 24.689a.666.666 0 01-.673-.666c-.053-4.11-1.248-7.237-3.66-9.571-2.38-2.303-5.392-3.466-8.93-3.48a.675.675 0 01-.006-1.349c3.898.012 7.218 1.301 9.854 3.858 2.647 2.556 4.015 6.096 4.08 10.514a.665.665 0 01-.666.694c.011 0 .011 0 0 0zm-10.824 5.844s.945.08 1.452-.55l.981-1.247c.475-.618 1.63-1.017 2.76-.396.628.347 1.768 1.042 2.471 1.558.757.549 2.293 1.815 2.304 1.826.736.612.91 1.514.416 2.483v.021c-.505.905-1.19 1.759-2.046 2.549-.011 0-.011.01-.022.01-.708.6-1.407.943-2.087 1.02-.084.022-.18.023-.307.023a2.895 2.895 0 01-.893-.133l-.022-.032c-1.063-.292-2.83-1.026-5.77-2.636a34.189 34.189 0 01-4.859-3.171 24.8 24.8 0 01-2.187-1.922l-.075-.074-.075-.074a26.06 26.06 0 01-.074-.074c-.022-.02-.054-.052-.075-.073a26.662 26.662 0 01-1.944-2.168c-1.08-1.332-2.16-2.92-3.222-4.826-1.64-2.933-2.393-4.692-2.696-5.742l-.032-.021a2.895 2.895 0 01-.142-.891c0-.128-.001-.223.02-.309.08-.69.417-1.382.997-2.097 0-.01.011-.01.011-.021a10.124 10.124 0 012.527-2.074h.022c.953-.504 1.857-.339 2.487.39 0 0 1.293 1.534 1.85 2.285.523.71 1.23 1.831 1.584 2.456.632 1.122.245 2.282-.368 2.763l-1.238.994c-.624.513-.534 1.458-.534 1.458s1.874 6.979 8.786 8.695z" fill="#fff"/></svg>